PathFileType	4	(X/Y/Z)	Run_500 02
DataRate	CameraRate	NumFrames	NumMarkers	Units	OrigDataRate	OrigDataStartFrame	OrigNumFrames
120	120	7	42	mm	120	65	128
Frame#	Time	LASI			RASI			LPSI			RPSI			RTH1			RTH2			RTH3			LTH1			LTH2			LTH3			RTB1			RTB2			LTB1			LTB2			LTB3			RCAL			RTOE			RMT5			LCAL			LTOE			LMT5			LACR			RACR			CLAV			C7			RUA1			RUA2			RUA3			RLEL			RMEL			LUA1			LUA2			LUA3			LLEL			LMEL			RFAsuperior			RFAradius			RFAulna			LFAsuperior			LFAradius			LFAulna			RTB3			
		X1	Y1	Z1	X2	Y2	Z2	X3	Y3	Z3	X4	Y4	Z4	X5	Y5	Z5	X6	Y6	Z6	X7	Y7	Z7	X8	Y8	Z8	X9	Y9	Z9	X10	Y10	Z10	X11	Y11	Z11	X12	Y12	Z12	X13	Y13	Z13	X14	Y14	Z14	X15	Y15	Z15	X16	Y16	Z16	X17	Y17	Z17	X18	Y18	Z18	X19	Y19	Z19	X20	Y20	Z20	X21	Y21	Z21	X22	Y22	Z22	X23	Y23	Z23	X24	Y24	Z24	X25	Y25	Z25	X26	Y26	Z26	X27	Y27	Z27	X28	Y28	Z28	X29	Y29	Z29	X30	Y30	Z30	X31	Y31	Z31	X32	Y32	Z32	X33	Y33	Z33	X34	Y34	Z34	X35	Y35	Z35	X36	Y36	Z36	X37	Y37	Z37	X38	Y38	Z38	X39	Y39	Z39	X40	Y40	Z40	X41	Y41	Z41	X42	Y42	Z42	

60	0.6583329999999999	893.109741	1028.550832	-770.983806	925.323902	1011.680367	-510.064919	728.354784	1069.664577	-652.838934	735.338792	1056.320356	-572.809736	912.057618	851.974666	-469.472555	1026.080616	801.5997640000001	-484.973306	1028.390331	676.604033	-506.013812	809.903792	821.71051	-816.7283650000001	865.732651	694.842863	-808.4952489999999	799.914922	584.204289	-776.175828	1042.772898	500.617969	-601.143476	977.85193	499.858159	-527.343578	788.208377	352.637663	-699.256857	709.13078	293.54369	-738.073844	656.0719790000001	202.831056	-662.736095	694.210691	511.829614	-589.221842	754.411148	286.185744	-603.703748	711.8862800000001	339.98266	-511.91581	474.449312	139.39376	-633.419131	697.789417	66.25137100000001	-629.8645310000001	615.549695	56.202701	-713.93375	979.493051	1468.71045	-820.335089	937.892788	1506.585164	-480.618673	1001.013973	1432.988243	-606.208838	876.638929	1526.416382	-660.840186	868.815888	1432.66349	-398.020087	824.445777	1353.749283	-396.720437	756.216285	1392.402704	-377.8321	662.796454	1292.435202	-334.653951	635.830292	1292.684175	-413.586004	981.352714	1372.837982	-892.023719	999.195868	1302.986912	-881.740809	910.888793	1278.277022	-909.5865690000001	953.441039	1120.318962	-962.309357	892.371399	1097.552551	-901.599083	737.128635	1212.16206	-332.840354	849.020131	1099.620654	-416.849242	815.392426	1071.700714	-358.828108	1036.381924	1142.1357	-908.466003	1121.820022	1194.38982	-760.898352	1156.588925	1135.930215	-784.9665649999999	918.513808	417.487399	-596.159881	
61	0.666667	895.925387	1029.652579	-772.671323	927.566358	1018.318369	-511.89276	731.413824	1072.817689	-654.0547319999999	737.942653	1061.100329	-573.360405	917.2655109999999	861.609868	-467.768805	1032.303816	815.479772	-484.121569	1039.827429	690.873141	-504.728289	803.706776	823.810376	-815.629143	851.323627	694.048353	-807.556025	777.419928	587.252766	-774.642336	1065.970109	507.470661	-601.159621	1000.523373	500.059481	-527.314283	754.97798	355.355528	-699.997894	674.243936	298.838377	-738.627699	619.249118	208.731201	-662.973001	717.352872	480.319022	-590.545985	804.0756710000001	263.418888	-604.840238	754.701351	311.602676	-513.241699	437.987959	151.308502	-634.86239	656.943366	65.7688	-630.250141	574.628532	58.244829	-713.5314499999999	981.800601	1476.300929	-816.586596	933.374289	1512.94179	-478.606988	1000.548998	1440.484373	-602.453468	876.161366	1531.672823	-659.620354	862.057424	1442.474171	-397.679594	816.480377	1364.342388	-397.343477	748.28612	1404.590991	-381.28462	650.484677	1307.653321	-340.98918	627.860832	1307.517714	-421.133997	985.713012	1380.142968	-887.5587860000001	1003.716426	1310.827161	-877.038191	916.453719	1285.246705	-905.522244	959.244104	1126.99626	-957.309534	897.867633	1104.546137	-896.405142	724.0274010000001	1227.400306	-336.402502	835.955159	1111.320867	-416.800333	801.465154	1085.027998	-358.374899	1041.078058	1152.886223	-903.494549	1122.167179	1212.630843	-756.022286	1159.381115	1154.911035	-778.201364	941.092971	417.814208	-596.052037	
62	0.675	899.766375	1031.134185	-774.890669	929.895883	1025.45585	-513.637635	735.02259	1076.322367	-655.858083	741.056322	1066.111311	-574.331037	922.476918	871.568985	-465.924938	1037.857085	828.824089	-483.100065	1049.630852	704.656647	-503.246208	799.206851	826.890503	-814.652935	837.360133	695.284904	-806.404898	755.287527	592.703638	-773.369853	1087.863608	513.6343879999999	-600.605466	1022.72153	499.031895	-527.215604	722.275179	360.57545	-701.054122	640.2281829999999	306.435575	-739.675323	583.791965	216.452745	-663.505732	743.7281860000001	448.07196	-592.999671	855.511743	242.753131	-605.671731	799.697064	284.938185	-514.909098	403.531718	164.611967	-636.2890190000001	616.864715	65.19181399999999	-630.722041	534.506535	60.925635	-713.160481	983.683394	1484.293008	-813.144697	929.33863	1519.850885	-476.800441	999.8087829999999	1448.477072	-598.510314	875.779431	1537.368216	-658.481225	855.932012	1453.063889	-397.725116	809.324895	1375.436359	-398.532606	741.022657	1417.051166	-386.051037	639.480564	1322.997159	-348.008581	621.926631	1322.177344	-429.437278	989.10007	1387.830838	-883.470345	1007.665813	1318.974142	-872.151714	921.005422	1292.282132	-901.94858	964.329973	1134.014357	-952.425291	902.512915	1112.081876	-891.557987	711.80115	1242.522501	-340.352354	824.259009	1123.096136	-416.779316	788.5437429999999	1098.284527	-358.33788	1044.723661	1163.485047	-898.985744	1121.406885	1230.542629	-751.603856	1160.749569	1173.410276	-771.686381	962.705214	417.182916	-595.8346739999999	
63	0.683333	904.71377	1032.936254	-776.972437	932.181301	1032.920249	-515.203639	739.181779	1080.176958	-658.240915	744.529819	1071.484434	-575.778899	927.730848	881.706282	-463.990242	1042.80579	841.266767	-481.923985	1057.796267	717.433445	-501.571698	795.780338	830.658392	-813.77964	823.95374	698.350592	-805.105852	734.071992	600.4766990000001	-772.714427	1108.577906	518.774029	-599.460853	1044.700694	496.668375	-526.989537	690.725449	368.176483	-702.677283	607.4499510000001	316.310058	-741.239652	550.520517	225.803686	-664.8493559999999	773.333985	415.692954	-596.212673	908.268502	224.523497	-606.544119	846.5190669999999	260.131847	-516.897048	371.618231	179.068842	-637.542291	577.489017	64.336814	-631.230492	495.198188	64.227253	-712.911684	985.362468	1492.551371	-809.87785	925.930387	1526.986611	-475.170135	998.706971	1456.576378	-594.5660810000001	875.511946	1543.279364	-657.409537	850.466063	1464.04571	-398.078093	802.875481	1386.771032	-399.933593	734.46113	1429.656655	-391.865632	629.717629	1338.02853	-355.521204	617.050981	1336.371071	-437.968735	991.809497	1395.872965	-879.869471	1011.037661	1327.255058	-867.372841	924.437826	1299.561403	-898.973765	968.7561940000001	1141.298906	-947.732291	906.524181	1119.834745	-887.077836	700.461978	1257.097517	-344.611602	814.105777	1134.761097	-416.671181	776.686933	1111.183902	-358.747894	1047.676012	1173.978506	-894.579607	1119.767293	1247.814397	-747.668695	1160.893585	1191.160716	-765.45664	984.065467	415.190762	-595.477186	
64	0.691667	910.651506	1035.048944	-778.127149	934.490682	1040.635537	-516.454016	743.835167	1084.386069	-661.08317	748.397033	1077.320682	-577.755475	932.830018	891.87168	-462.167373	1047.130386	852.36795	-480.589529	1064.305202	728.613191	-500.097975	792.633152	835.086411	-813.022391	811.25925	702.909929	-803.649302	714.294352	610.304862	-772.682473	1128.200614	522.578948	-597.909009	1066.553881	493.0132	-526.583376	660.867792	378.052962	-704.821851	576.228206	328.519992	-743.206651	520.1030459999999	236.563068	-667.393158	805.908989	383.597345	-599.6235	961.937797	209.009075	-607.8418	895.009996	237.156023	-519.1959430000001	343.051239	194.756044	-638.780225	538.492334	63.158415	-631.782232	456.592169	68.317222	-712.950374	987.013839	1500.90571	-806.667771	923.111807	1534.033158	-473.70474	997.346944	1464.408197	-590.8573730000001	875.3383229999999	1549.159613	-656.353171	845.610491	1474.947365	-398.657838	797.036787	1398.028974	-401.267064	728.700558	1442.10169	-398.230187	621.115855	1352.348287	-363.292614	612.702721	1349.745159	-446.307013	994.148085	1404.175099	-876.692923	1013.848004	1335.545383	-863.011803	926.95958	1307.153272	-896.430328	972.469385	1148.82226	-943.317292	909.90915	1127.629158	-882.949722	690.200721	1270.890611	-349.106659	805.560387	1146.093442	-416.370012	766.0220409999999	1123.465793	-359.495273	1050.125308	1184.475521	-890.1720299999999	1117.528034	1264.192843	-744.218375	1160.112913	1207.93638	-759.549741	1006.470519	411.199439	-595.0194739999999	
65	0.7	917.225146	1037.533089	-777.929786	936.975632	1048.483299	-517.3407570000001	748.792359	1088.987765	-664.236132	752.640776	1083.591622	-580.246004	937.327849	901.851098	-460.711203	1050.704658	861.609958	-479.12641	1069.046869	737.610455	-499.538504	789.256852	840.42455	-812.541051	799.400746	708.773507	-802.038235	696.3273840000001	621.932179	-772.812286	1146.744534	524.883327	-596.19988	1088.219321	488.26216	-525.931302	633.332353	390.137369	-707.074069	547.177187	343.010066	-745.265892	493.087253	248.498113	-671.0529790000001	841.054082	352.036031	-602.57308	1016.051203	196.385455	-609.778187	945.082166	215.963426	-521.784702	318.985957	211.99426	-640.454386	499.784669	62.076975	-632.530744	418.908241	73.758313	-713.455723	988.733969	1509.148356	-803.468878	920.733077	1540.721358	-472.424511	995.988171	1471.693266	-587.5141190000001	875.252441	1554.797649	-655.286777	841.2509240000001	1485.308289	-399.424868	791.74314	1408.837727	-402.42783	723.813717	1453.900563	-404.621633	613.623614	1365.581534	-371.026377	608.93054	1361.896768	-454.17786	996.329462	1412.59196	-873.782874	1016.165083	1343.775876	-859.306865	928.950959	1314.999243	-894.090412	975.361912	1156.51096	-939.263751	912.465699	1135.459785	-879.17546	681.211978	1283.745565	-353.675643	798.591698	1156.857055	-415.759317	756.695339	1134.88332	-360.385654	1052.015833	1194.906403	-885.951278	1114.924899	1279.472764	-741.207539	1158.713714	1223.515163	-753.996714	1031.262531	404.70421	-594.520798	
66	0.708333	923.908849	1040.463245	-776.551302	939.6626659999999	1056.175068	-518.044192	753.772365	1094.015751	-667.609833	757.043774	1090.10636	-583.163739	940.684676	911.18986	-459.780651	1053.322375	868.478627	-477.645155	1071.806953	743.98676	-500.46044	785.6144420000001	846.938449	-812.58572	788.433823	715.88941	-800.443716	680.405172	635.13697	-772.329645	1164.134561	525.702658	-594.486835	1109.515779	482.694446	-524.95215	608.850996	404.214576	-708.703952	521.291601	359.31115	-746.90689	469.74458	261.426482	-675.123218	878.3615590000001	321.176173	-604.5058330000001	1070.06458	186.640795	-612.3111270000001	996.552282	196.63165	-524.58113	300.295155	231.116548	-642.992622	461.842853	62.219572	-633.70958	382.940965	81.553854	-714.558895	990.519349	1517.055901	-800.2804609999999	918.615259	1546.839819	-471.359954	994.887803	1478.245719	-584.52651	875.277236	1560.041687	-654.235852	837.266275	1494.742434	-400.367935	786.971064	1418.796138	-403.436534	719.772151	1464.519187	-410.623431	607.206861	1377.362897	-378.37027	605.952677	1372.448739	-461.362464	998.457226	1420.945477	-870.968259	1018.104788	1351.897014	-856.3442230000001	930.743741	1322.999378	-891.823591	977.372744	1164.199101	-935.63465	913.975331	1143.365472	-875.805129	673.581837	1295.486928	-358.043337	793.119684	1166.820704	-414.729843	748.850067	1145.216028	-361.177905	1053.16744	1204.977651	-882.149178	1112.109646	1293.477881	-738.558488	1156.904461	1237.675208	-748.834735	1058.973794	395.81129	-593.981262	
